<?xml version="1.0" standalone="no"?>
<!DOCTYPE svg PUBLIC "-//W3C//DTD SVG 20010904//EN"
 "http://www.w3.org/TR/2001/REC-SVG-20010904/DTD/svg10.dtd">
<svg version="1.0" xmlns="http://www.w3.org/2000/svg"
 width="256.000000pt" height="256.000000pt" viewBox="0 0 256.000000 256.000000"
 preserveAspectRatio="xMidYMid meet">
<metadata>
Created by potrace 1.11, written by Peter Selinger 2001-2013
</metadata>
<g transform="translate(0.000000,256.000000) scale(0.100000,-0.100000)"
fill="#000000" stroke="none">
<path d="M1360 2070 c0 -5 0 -11 1 -12 0 -2 -4 -16 -10 -31 -6 -15 -13 -42
-17 -60 -3 -18 -16 -78 -29 -135 -14 -56 -27 -113 -29 -125 -2 -12 -12 -53
-21 -92 -9 -38 -19 -79 -21 -90 -5 -30 -49 -225 -100 -445 -25 -107 -67 -294
-95 -415 -27 -121 -52 -230 -55 -242 -6 -23 -6 -23 105 -23 117 0 116 -1 125
50 5 28 37 166 102 450 25 107 48 206 50 220 5 27 38 171 54 235 6 22 30 130
55 240 25 110 56 250 70 310 15 61 29 125 32 143 l6 32 -112 0 c-67 0 -111 -4
-111 -10z"/>
<path d="M845 1801 c-27 -15 -113 -61 -190 -101 -77 -40 -201 -104 -275 -143
-74 -39 -189 -99 -255 -133 l-120 -63 -3 -104 -3 -105 93 -47 c51 -27 129 -67
173 -90 44 -23 157 -82 250 -130 94 -48 216 -112 271 -141 56 -30 104 -54 108
-54 3 0 6 59 6 131 l0 130 -132 63 c-351 167 -491 237 -487 241 3 2 111 57
240 120 128 64 267 133 306 153 l73 37 0 133 c0 72 -1 132 -2 131 -2 0 -25
-13 -53 -28z"/>
<path d="M1658 1699 l-3 -131 30 -16 c17 -8 156 -78 310 -154 154 -77 282
-141 284 -144 4 -3 -158 -83 -481 -237 l-138 -66 0 -130 c0 -72 3 -131 6 -131
3 0 65 31 138 69 72 38 241 126 376 196 135 70 276 144 313 163 l68 35 -3 105
-3 104 -110 57 c-327 169 -615 320 -722 377 l-62 34 -3 -131z"/>
</g>
</svg>
